<svg width="24" height="24" viewBox="0 0 24 24" fill="none" xmlns="http://www.w3.org/2000/svg">
<g clip-path="url(#clip0_6_2)">
<path fill-rule="evenodd" clip-rule="evenodd" d="M12.0001 15.6729C14.2996 15.6729 16.1639 17.5372 16.1639 19.8367C16.1639 22.1362 14.2996 24.0005 12.0001 24.0005C9.70064 24.0005 7.83633 22.1362 7.83633 19.8367C7.83633 17.5372 9.70064 15.6729 12.0001 15.6729ZM4.16381 7.83637C6.4633 7.83637 8.32761 9.70068 8.32761 12.0002C8.32761 14.3001 6.4633 16.164 4.16381 16.164C1.86431 16.164 0 14.3001 0 12.0002C0 9.70068 1.86431 7.83637 4.16381 7.83637ZM19.8366 7.83637C22.1361 7.83637 24 9.70068 24 12.0002C24 14.3001 22.1361 16.164 19.8366 16.164C17.5371 16.164 15.6728 14.3001 15.6728 12.0002C15.6728 9.70068 17.5371 7.83637 19.8366 7.83637ZM12.0001 0C14.2996 0 16.1639 1.86431 16.1639 4.16381C16.1639 6.46375 14.2996 8.32761 12.0001 8.32761C9.70064 8.32761 7.83633 6.46375 7.83633 4.16381C7.83633 1.86431 9.70064 0 12.0001 0Z" fill="#35A0CD"/>
</g>
<defs>
<clipPath id="clip0_6_2">
<rect width="24" height="24" fill="white"/>
</clipPath>
</defs>
</svg>
