<?xml version="1.0" encoding="UTF-8"?>
<svg width="56px" height="56px" viewBox="0 0 56 56" version="1.1" xmlns="http://www.w3.org/2000/svg" xmlns:xlink="http://www.w3.org/1999/xlink">
    <title>_1</title>
    <g id="Page-1" stroke="none" stroke-width="1" fill="none" fill-rule="evenodd">
        <g id="2" transform="translate(-313.000000, -239.000000)">
            <g id="_1" transform="translate(313.000000, 239.000000)">
                <rect id="Rectangle-Copy-5" stroke-opacity="0.08" stroke="#000000" x="0.5" y="0.5" width="55" height="55" rx="6"/>
                <g id="Group" opacity="0.24" transform="translate(12.000000, 12.000000)">
                    <rect id="Rectangle" x="0" y="0" width="32" height="32"/>
                    <path d="M25,28 L7,28 C6.44771525,28 6,27.5522847 6,27 L6,5 C6,4.44771525 6.44771525,4 7,4 L19,4 L26,11 L26,27 C26,27.5522847 25.5522847,28 25,28 Z" id="Path" stroke="#050505" stroke-linecap="round" stroke-linejoin="round"/>
                    <polyline id="Path" stroke="#050505" stroke-linecap="round" stroke-linejoin="round" points="19 4 19 11 26 11"/>
                    <line x1="13" y1="16" x2="19" y2="22" id="Path" stroke="#050505" stroke-linecap="round" stroke-linejoin="round"/>
                    <line x1="19" y1="16" x2="13" y2="22" id="Path" stroke="#050505" stroke-linecap="round" stroke-linejoin="round"/>
                </g>
            </g>
        </g>
    </g>
</svg>